<?xml version="1.0" encoding="UTF-8"?>
<svg id="Capa_2" data-name="Capa 2" xmlns="http://www.w3.org/2000/svg" viewBox="0 0 559.17 271.84">
  <defs>
    <style>
      .cls-1 {
        fill: #fbffee;
      }
    </style>
  </defs>
  <g id="Capa_1-2" data-name="Capa 1">
    <g>
      <path class="cls-1" d="m302.87,46.6l-23.57-23.58L256.29,0H54.37c-5.18.37-7.77,2.98-7.77,7.77v38.83h209.69v62.13h46.6v-62.13h-.01Zm-46.59,108.73v69.9H46.6v15.53c0,7.77,3.23,14.89,9.7,21.35,6.47,6.47,13.6,9.72,21.37,9.72h178.62l46.6-46.6v-69.9h-46.6Zm0,0v-46.6H46.6v-62.13H0v178.63h46.6v-69.9h209.69Z"/>
      <path class="cls-1" d="m302.87,225.23v15.53c0,7.77,3.24,14.89,9.72,21.35,6.47,6.47,13.58,9.72,21.35,9.72h209.7l15.53-46.6h-256.3Zm0-225.23l-23.57,23.02-23.02,22.48v63.23h46.59v-62.13h256.3V0h-256.3Zm.01,155.33h209.69v-46.6h-209.69v46.6Zm-46.6,69.9h46.59v-69.9h-46.59v69.9Z"/>
    </g>
  </g>
</svg>