<?xml version="1.0" encoding="UTF-8"?>
<svg id="Capa_2" data-name="Capa 2" xmlns="http://www.w3.org/2000/svg" viewBox="0 0 1128.09 155.84">
  <defs>
    <style>
      .cls-1 {
        fill: #fbffee;
      }
    </style>
  </defs>
  <g id="Capa_1-2" data-name="Capa 1">
    <g>
      <g>
        <path class="cls-1" d="m708.46,148.4h-23.29l-3.89,6.82h-4.31l16.99-29.77h5.34l16.93,29.77h-3.9l-3.87-6.82Zm-1.76-3.1l-9.87-17.39-9.9,17.39h19.77Z"/>
        <path class="cls-1" d="m779.68,134.75c0-1.55-.17-2.78-.5-3.68-.34-.9-.89-1.59-1.67-2.05-.78-.47-1.79-.76-3.05-.89-1.26-.13-2.82-.19-4.68-.19h-8.7c-1.66,0-3.05.05-4.18.15-1.13.1-2.06.29-2.8.59-.74.3-1.31.72-1.71,1.28-.4.56-.69,1.29-.87,2.21-.18.92-.28,2.04-.31,3.38-.03,1.34-.04,2.94-.04,4.8s.02,3.46.05,4.8c.03,1.34.14,2.46.32,3.38.18.92.47,1.65.86,2.21.39.56.96.98,1.7,1.28.74.3,1.67.49,2.8.59,1.13.1,2.52.15,4.18.15h8.7c1.45,0,2.69-.04,3.74-.12,1.05-.08,1.94-.22,2.68-.43.74-.21,1.33-.49,1.78-.85.45-.36.8-.82,1.06-1.37.25-.55.42-1.21.51-1.98.09-.77.14-1.67.14-2.7h3.72c0,1.24-.08,2.36-.23,3.36-.16,1-.43,1.89-.82,2.68s-.92,1.46-1.58,2.03c-.66.57-1.49,1.04-2.5,1.41-1.01.37-2.21.64-3.6.81-1.4.18-3.02.26-4.88.26h-8.7c-2.27,0-4.19-.14-5.75-.42-1.56-.28-2.84-.7-3.85-1.26-1.01-.56-1.79-1.27-2.34-2.12-.55-.85-.95-1.85-1.2-3-.25-1.15-.4-2.45-.44-3.9-.04-1.45-.06-3.05-.06-4.81s.02-3.36.06-4.81c.04-1.45.18-2.75.44-3.9.25-1.15.65-2.15,1.2-3,.55-.85,1.33-1.56,2.34-2.12,1.01-.56,2.29-.98,3.85-1.26,1.56-.28,3.47-.42,5.75-.42h8.7c1.86,0,3.49.09,4.88.26,1.39.17,2.6.44,3.6.79,1.01.36,1.84.8,2.5,1.35.66.54,1.19,1.18,1.58,1.92.39.74.67,1.57.82,2.5.15.93.23,1.96.23,3.1h-3.72Z"/>
        <path class="cls-1" d="m846.09,148.4h-23.29l-3.89,6.82h-4.31l16.99-29.77h5.34l16.93,29.77h-3.9l-3.87-6.82Zm-1.76-3.1l-9.87-17.39-9.9,17.39h19.77Z"/>
        <path class="cls-1" d="m885.06,155.22v-29.77h22.31c2.27,0,4.19.13,5.75.4,1.56.27,2.84.67,3.86,1.21,1.01.54,1.8,1.22,2.35,2.04.55.81.95,1.77,1.2,2.88.25,1.1.4,2.35.45,3.74.05,1.39.07,2.93.07,4.62s-.02,3.23-.07,4.62c-.05,1.39-.19,2.64-.45,3.74-.25,1.1-.65,2.06-1.2,2.88-.55.81-1.33,1.49-2.35,2.04-1.02.54-2.3.95-3.86,1.21-1.56.26-3.47.4-5.75.4h-22.31Zm22.31-3.1c1.64,0,3.03-.04,4.17-.14,1.14-.09,2.07-.27,2.81-.55.74-.28,1.3-.68,1.71-1.21.4-.53.69-1.23.88-2.1.19-.87.3-1.94.33-3.22.03-1.27.05-2.79.05-4.56s-.02-3.29-.05-4.56c-.03-1.27-.14-2.35-.33-3.22-.19-.87-.48-1.57-.88-2.1-.4-.53-.97-.93-1.71-1.21-.74-.28-1.67-.46-2.8-.55-1.13-.09-2.52-.14-4.18-.14h-18.59v23.57h18.59Z"/>
        <path class="cls-1" d="m956.97,155.22v-29.77h29.77v3.1h-26.05v9.92h24.81v3.1h-24.81v10.54h26.05v3.1h-29.77Z"/>
        <path class="cls-1" d="m1020.98,127.93v27.29h-3.72v-29.77h5.99l17.34,26.05,17.36-26.05h6.14v29.77h-3.72v-26.88l-17.68,26.88h-3.76l-17.95-27.29Z"/>
        <path class="cls-1" d="m1090.88,125.45h4.96l13.65,14.57,13.64-14.57h4.96l-16.75,17.37v12.41h-3.72v-12.41l-16.75-17.37Z"/>
      </g>
      <g>
        <path class="cls-1" d="m238.31,16.04v21.38h88.21v16.04h-88.21v40.1h-16.04V16.04h16.04Zm0-5.35c0-2.67,1.11-5.12,3.34-7.35C243.88,1.12,246.33,0,249,0h77.52v16.04h-88.21v-5.35Z"/>
        <path class="cls-1" d="m339.77,18.62c2.03-1.72,4.58-2.58,7.64-2.58h5.35v61.48h-16.04V26.73c0-3.69,1.02-6.4,3.06-8.12ZM352.75,0h72.17v16.04h-72.17V0Zm0,77.52h72.17l-16.04,16.04h-45.44c-2.67,0-5.12-1.11-7.35-3.34-2.23-2.23-3.34-4.68-3.34-7.35v-5.35Zm77.52-61.48c4.07,0,6.87.76,8.4,2.29s2.29,4.33,2.29,8.4v50.79h-16.04V16.04h5.35Z"/>
        <path class="cls-1" d="m454.21,18.62c2.03-1.72,4.58-2.58,7.64-2.58h5.35v61.48h-16.04V26.73c0-3.69,1.02-6.4,3.06-8.12ZM467.19,0h72.17v16.04h-72.17V0Zm0,77.52h72.17l-16.04,16.04h-45.44c-2.67,0-5.12-1.11-7.35-3.34-2.23-2.23-3.34-4.68-3.34-7.35v-5.35Zm77.52-61.48c4.07,0,6.87.76,8.4,2.29,1.53,1.53,2.29,4.33,2.29,8.4v50.79h-16.04V16.04h5.35Z"/>
        <path class="cls-1" d="m599.51,0l24.06,16.04v77.52h-16.04V16.04h-42.77V0h34.75ZM623.56,0h45.44v16.04h-45.44V0Z"/>
        <path class="cls-1" d="m679.2,16.04h16.04v21.38h72.17v16.04h-72.17v29.4c0,2.67,1.11,5.13,3.34,7.35,2.23,2.23,4.68,3.34,7.35,3.34h61.48l16.04-16.04v-24.06h-16.04v24.06h-88.21V16.04ZM767.41,0h-69.5c-1.78.13-2.67,1.02-2.67,2.67v13.36h72.17v21.38h16.04v-21.38L767.41,0Z"/>
        <path class="cls-1" d="m882.27,53.46h-72.17v40.1h-16.04V16.04h16.04v21.38h72.17v-21.38h-72.17V0h72.17l16.04,16.04v77.52h-16.04v-40.1Z"/>
        <path class="cls-1" d="m909.4,0h16.04v77.52h-16.04V0Zm19.38,90.21c2.23,2.23,4.68,3.34,7.35,3.34h77.52v-16.04h-88.21v5.35c0,2.67,1.11,5.13,3.34,7.35Z"/>
        <path class="cls-1" d="m1023.84,0h16.04v77.52h-16.04V0Zm19.38,90.21c2.23,2.23,4.68,3.34,7.35,3.34h77.52v-16.04h-88.21v5.35c0,2.67,1.11,5.13,3.34,7.35Z"/>
        <g>
          <path class="cls-1" d="m104.24,16.04l-8.11-8.12-7.92-7.92H18.71c-1.78.13-2.67,1.02-2.67,2.67v13.37h72.17v21.38h16.04v-21.38h0Zm-16.03,37.42v24.06H16.04v5.35c0,2.67,1.11,5.13,3.34,7.35,2.23,2.23,4.68,3.34,7.35,3.34h61.47l16.04-16.04v-24.06h-16.04Zm0,0v-16.04H16.04v-21.38H0v61.48h16.04v-24.06h72.17Z"/>
          <path class="cls-1" d="m104.24,77.52v5.35c0,2.67,1.12,5.13,3.34,7.35,2.23,2.23,4.68,3.34,7.35,3.34h72.17l5.35-16.04h-88.21Zm0-77.52l-8.11,7.92-7.92,7.74v21.76h16.03v-21.38h88.21V0h-88.21Zm0,53.46h72.17v-16.04h-72.17v16.04Zm-16.04,24.06h16.03v-24.06h-16.03v24.06Z"/>
        </g>
        <rect class="cls-1" x="195.53" y="37.42" width="16.04" height="16.04"/>
      </g>
    </g>
  </g>
</svg>