<?xml version="1.0" encoding="UTF-8"?>
<svg id="Capa_2" data-name="Capa 2" xmlns="http://www.w3.org/2000/svg" viewBox="0 0 457.26 359.67">
  <defs>
    <style>
      .cls-1 {
        fill: #fbffee;
      }

      .cls-2 {
        fill: #d0ff5c;
      }
    </style>
  </defs>
  <g id="Capa_1-2" data-name="Capa 1">
    <g>
      <g>
        <path class="cls-2" d="m64.5,353.37h-19.7l-3.29,5.77h-3.64l14.37-25.18h4.52l14.32,25.18h-3.3l-3.27-5.77Zm-1.49-2.62l-8.34-14.71-8.37,14.71h16.72Z"/>
        <path class="cls-2" d="m124.73,341.83c0-1.31-.14-2.35-.43-3.11-.28-.77-.75-1.34-1.41-1.74-.66-.39-1.52-.65-2.58-.75-1.07-.11-2.39-.16-3.96-.16h-7.36c-1.4,0-2.58.04-3.53.12-.96.08-1.75.25-2.37.5-.62.25-1.1.61-1.44,1.08-.34.47-.58,1.09-.74,1.87-.15.78-.24,1.73-.26,2.86-.02,1.13-.03,2.48-.03,4.06s.01,2.93.04,4.06c.03,1.13.12,2.08.27,2.86.15.78.4,1.4.73,1.87.33.47.81.83,1.43,1.08.62.25,1.41.42,2.37.5.96.08,2.13.12,3.53.12h7.36c1.22,0,2.28-.03,3.16-.1.89-.07,1.64-.19,2.26-.36.62-.17,1.12-.41,1.51-.72.38-.31.68-.69.89-1.16.21-.46.36-1.02.43-1.67.08-.65.11-1.41.11-2.29h3.15c0,1.05-.07,2-.2,2.84-.13.85-.36,1.6-.7,2.26-.33.66-.78,1.23-1.34,1.71-.56.48-1.26.88-2.12,1.19-.85.31-1.87.54-3.05.69-1.18.15-2.56.22-4.13.22h-7.36c-1.92,0-3.54-.12-4.86-.35-1.32-.24-2.4-.59-3.25-1.07-.85-.48-1.51-1.07-1.98-1.8-.46-.72-.8-1.57-1.02-2.54-.21-.97-.34-2.07-.37-3.29-.03-1.22-.05-2.58-.05-4.07s.02-2.84.05-4.07c.03-1.22.16-2.32.37-3.3.21-.97.55-1.82,1.02-2.54.47-.72,1.12-1.32,1.98-1.8s1.94-.83,3.25-1.07c1.32-.23,2.94-.35,4.86-.35h7.36c1.57,0,2.95.07,4.13.22,1.18.15,2.2.37,3.05.67s1.56.68,2.12,1.14c.56.46,1,1,1.34,1.62s.56,1.33.7,2.11c.13.79.2,1.66.2,2.62h-3.15Z"/>
        <path class="cls-2" d="m180.89,353.37h-19.7l-3.29,5.77h-3.64l14.37-25.18h4.52l14.32,25.18h-3.3l-3.27-5.77Zm-1.49-2.62l-8.34-14.71-8.37,14.71h16.72Z"/>
        <path class="cls-2" d="m213.85,359.14v-25.18h18.87c1.92,0,3.54.11,4.86.34,1.32.22,2.4.57,3.26,1.02.86.46,1.52,1.03,1.98,1.72.46.69.8,1.5,1.02,2.43.21.93.34,1.99.38,3.16.04,1.18.06,2.48.06,3.91s-.02,2.73-.06,3.91c-.04,1.18-.16,2.23-.38,3.16-.21.93-.55,1.75-1.02,2.43-.46.69-1.13,1.26-1.98,1.72-.86.46-1.95.8-3.26,1.02-1.32.22-2.94.34-4.86.34h-18.87Zm18.87-2.62c1.39,0,2.56-.04,3.52-.12.96-.08,1.75-.23,2.38-.47.62-.23,1.1-.58,1.44-1.02.34-.45.59-1.04.75-1.78.16-.74.25-1.64.28-2.72.03-1.08.04-2.36.04-3.86s-.01-2.78-.04-3.86c-.03-1.08-.12-1.98-.28-2.72-.16-.74-.41-1.33-.75-1.78s-.82-.79-1.44-1.02c-.62-.24-1.41-.39-2.37-.47-.96-.08-2.13-.12-3.53-.12h-15.72v19.93h15.72Z"/>
        <path class="cls-2" d="m274.67,359.14v-25.18h25.18v2.62h-22.03v8.39h20.98v2.62h-20.98v8.92h22.03v2.62h-25.18Z"/>
        <path class="cls-2" d="m328.8,336.06v23.08h-3.15v-25.18h5.06l14.67,22.03,14.68-22.03h5.19v25.18h-3.15v-22.74l-14.95,22.74h-3.18l-15.18-23.08Z"/>
        <path class="cls-2" d="m387.92,333.96h4.2l11.54,12.32,11.54-12.32h4.2l-14.16,14.69v10.49h-3.15v-10.49l-14.16-14.69Z"/>
      </g>
      <g>
        <g>
          <path class="cls-1" d="m8.08,257.7v10.78h44.46v8.09H8.08v20.21H0v-39.07h8.08Zm0-2.69c0-1.35.56-2.58,1.68-3.71,1.12-1.12,2.36-1.68,3.7-1.68h39.07v8.08H8.08v-2.69Z"/>
          <path class="cls-1" d="m59.32,259c1.03-.87,2.31-1.3,3.85-1.3h2.69v30.99h-8.08v-25.6c0-1.86.51-3.22,1.54-4.09Zm6.54-9.38h36.38v8.08h-36.38v-8.08Zm0,39.07h36.38l-8.08,8.08h-22.91c-1.35,0-2.58-.56-3.7-1.68-1.12-1.12-1.68-2.36-1.68-3.7v-2.69Zm39.07-30.99c2.05,0,3.47.39,4.23,1.15.77.77,1.15,2.18,1.15,4.23v25.6h-8.08v-30.99h2.69Z"/>
          <path class="cls-1" d="m117.11,259c1.03-.87,2.31-1.3,3.85-1.3h2.69v30.99h-8.08v-25.6c0-1.86.51-3.22,1.54-4.09Zm6.54-9.38h36.38v8.08h-36.38v-8.08Zm0,39.07h36.38l-8.08,8.08h-22.91c-1.35,0-2.58-.56-3.7-1.68-1.12-1.12-1.68-2.36-1.68-3.7v-2.69Zm39.07-30.99c2.05,0,3.47.39,4.23,1.15.77.77,1.15,2.18,1.15,4.23v25.6h-8.08v-30.99h2.69Z"/>
          <path class="cls-1" d="m190.44,249.61l12.13,8.08v39.07h-8.08v-39.07h-21.56v-8.08h17.52Zm12.13,0h22.91v8.08h-22.91v-8.08Z"/>
          <path class="cls-1" d="m230.71,257.7h8.08v10.78h36.38v8.09h-36.38v14.82c0,1.35.56,2.58,1.68,3.7,1.12,1.12,2.36,1.68,3.7,1.68h30.99l8.08-8.08v-12.13h-8.08v12.13h-44.46v-30.99Zm44.46-8.08h-35.03c-.9.06-1.35.51-1.35,1.35v6.74h36.38v10.78h8.08v-10.78l-8.08-8.08Z"/>
          <path class="cls-1" d="m333.17,276.56h-36.38v20.21h-8.08v-39.07h8.08v10.78h36.38v-10.78h-36.38v-8.08h36.38l8.08,8.08v39.07h-8.08v-20.21Z"/>
          <path class="cls-1" d="m346.93,249.61h8.08v39.07h-8.08v-39.07Zm9.77,45.47c1.12,1.12,2.36,1.68,3.7,1.68h39.07v-8.08h-44.46v2.69c0,1.35.56,2.58,1.68,3.7Z"/>
          <path class="cls-1" d="m404.71,249.61h8.08v39.07h-8.08v-39.07Zm9.77,45.47c1.12,1.12,2.36,1.68,3.7,1.68h39.07v-8.08h-44.46v2.69c0,1.35.56,2.58,1.68,3.7Z"/>
        </g>
        <g>
          <path class="cls-1" d="m247.67,38.11l-19.27-19.28L209.58,0H44.46c-4.23.3-6.35,2.43-6.35,6.35v31.76h171.47v50.81h38.11v-50.81h-.01Zm-38.1,88.92v57.16H38.11v12.7c0,6.35,2.64,12.18,7.93,17.46,5.29,5.29,11.12,7.95,17.47,7.95h146.07l38.11-38.11v-57.16h-38.11Zm0,0v-38.11H38.11v-50.81H0v146.08h38.11v-57.16h171.47Z"/>
          <path class="cls-1" d="m247.67,184.19v12.7c0,6.35,2.65,12.18,7.95,17.46,5.29,5.29,11.11,7.95,17.46,7.95h171.48l12.7-38.11h-209.59Zm0-184.19l-19.27,18.82-18.82,18.38v51.71h38.1v-50.81h209.59V0h-209.59Zm.01,127.02h171.47v-38.11h-171.47v38.11Zm-38.11,57.16h38.1v-57.16h-38.1v57.16Z"/>
        </g>
      </g>
    </g>
  </g>
</svg>